<?xml version="1.0" encoding="iso-8859-1"?>
<!-- Generator: Adobe Illustrator 19.0.0, SVG Export Plug-In . SVG Version: 6.00 Build 0)  -->
<svg xmlns="http://www.w3.org/2000/svg" xmlns:xlink="http://www.w3.org/1999/xlink" version="1.1" id="Layer_1" x="0px" y="0px" viewBox="0 0 485 485" style="enable-background:new 0 0 485 485;" xml:space="preserve" width="512" height="512">
<g>
	<g id="XMLID_15_">
		<g>
			<path style="fill:#31C0D8;" d="M387.7,112.3c-35.8-39.8-87.6-64.8-145.2-64.8c-107.7,0-195,87.3-195,195s87.3,195,195,195     s195-87.3,195-195C437.5,192.5,418.7,146.8,387.7,112.3z"/>
			<path style="fill:#AFB6BB;" d="M242.5,7.5c129.8,0,235,105.2,235,235s-105.2,235-235,235s-235-105.2-235-235S112.7,7.5,242.5,7.5     z M242.5,437.5c107.7,0,195-87.3,195-195c0-50-18.8-95.7-49.8-130.2c-35.8-39.8-87.6-64.8-145.2-64.8c-107.7,0-195,87.3-195,195     S134.8,437.5,242.5,437.5z"/>
		</g>
		<g>
			<path d="M413.979,71.022C368.179,25.223,307.28,0,242.5,0S116.821,25.223,71.022,71.022C25.223,116.821,0,177.72,0,242.5     s25.223,125.679,71.022,171.478C116.821,459.777,177.72,485,242.5,485s125.679-25.223,171.479-71.022     C459.777,368.179,485,307.28,485,242.5S459.777,116.821,413.979,71.022z M403.372,403.372C360.405,446.337,303.273,470,242.5,470     c-60.774,0-117.906-23.663-160.872-66.628S15,303.274,15,242.5S38.663,124.594,81.628,81.628S181.726,15,242.5,15     c60.773,0,117.905,23.663,160.872,66.628C446.338,124.594,470,181.726,470,242.5S446.338,360.406,403.372,403.372z"/>
			<path d="M393.276,107.284C354.813,64.524,299.858,40,242.5,40C130.841,40,40,130.841,40,242.5S130.841,445,242.5,445     C354.159,445,445,354.159,445,242.5C445,192.425,426.632,144.406,393.276,107.284z M250,429.837V387.5h-15v42.337     c-49.821-1.97-94.704-23.467-127.191-57.039l29.994-29.994l-10.606-10.606l-29.405,29.405     C72.555,330.995,56.835,292.272,55.163,250H97.5v-15H55.163c1.672-42.272,17.392-80.995,42.628-111.602l29.405,29.405     l10.606-10.606l-29.994-29.994C140.296,78.63,185.179,57.134,235,55.163V97.5h15V55.167     c48.022,1.935,93.696,22.376,127.26,56.966l-30.064,30.064l10.607,10.606l29.482-29.482C413.301,154.86,428.216,194,429.842,235     H387.5v15h42.337c-1.672,42.272-17.392,80.994-42.628,111.602l-29.405-29.405l-10.607,10.606l29.995,29.995     C344.703,406.37,299.821,427.866,250,429.837z"/>
			<path d="M316.648,145H337.5v-15H285v52.5h15v-30.813c30.962,19.643,50,53.969,50,90.813c0,59.276-48.225,107.5-107.5,107.5     C183.224,350,135,301.776,135,242.5S183.224,135,242.5,135v-15C174.953,120,120,174.953,120,242.5S174.953,365,242.5,365     S365,310.047,365,242.5C365,204.045,346.812,167.988,316.648,145z"/>
			<polygon points="235,157.5 235,245.606 287.196,297.803 297.804,287.197 250,239.394 250,157.5    "/>
		</g>
	</g>
</g>















</svg>
