<?xml version="1.0" encoding="UTF-8" standalone="no"?>
<svg
   xmlns:dc="http://purl.org/dc/elements/1.1/"
   xmlns:cc="http://creativecommons.org/ns#"
   xmlns:rdf="http://www.w3.org/1999/02/22-rdf-syntax-ns#"
   xmlns:svg="http://www.w3.org/2000/svg"
   xmlns="http://www.w3.org/2000/svg"
   xmlns:xlink="http://www.w3.org/1999/xlink"
   xmlns:sodipodi="http://sodipodi.sourceforge.net/DTD/sodipodi-0.dtd"
   xmlns:inkscape="http://www.inkscape.org/namespaces/inkscape"
   version="1.1"
   id="Layer_1"
   x="0px"
   y="0px"
   viewBox="0 0 485 485"
   style="enable-background:new 0 0 485 485;"
   xml:space="preserve"
   width="512"
   height="512"
   sodipodi:docname="org.gnome.siglo.svg"
   inkscape:version="1.0.2 (e86c870879, 2021-01-15)"><metadata
   id="metadata26"><rdf:RDF><cc:Work
       rdf:about=""><dc:format>image/svg+xml</dc:format><dc:type
         rdf:resource="http://purl.org/dc/dcmitype/StillImage" /></cc:Work></rdf:RDF></metadata><defs
   id="defs24"><linearGradient
   inkscape:collect="always"
   id="linearGradient15354"><stop
     style="stop-color:#31c0d8;stop-opacity:1;"
     offset="0"
     id="stop15350" /><stop
     style="stop-color:#81e2f2;stop-opacity:1"
     offset="1"
     id="stop15352" /></linearGradient><linearGradient
   y2="812.88245"
   x2="1662.9901"
   y1="806.29718"
   x1="1660.8571"
   gradientTransform="matrix(1.8293937,-0.81599442,0.81599442,1.8293937,-3645.9624,100.02949)"
   gradientUnits="userSpaceOnUse"
   id="linearGradient1001"
   xlink:href="#linearGradient950" /><linearGradient
   id="linearGradient950"><stop
     style="stop-color:#9a9996;stop-opacity:1"
     offset="0"
     id="stop946" /><stop
     style="stop-color:#77767b;stop-opacity:1"
     offset="1"
     id="stop948" /></linearGradient>
		
		
	
			
			
		
	

			
			
			
			
		<mask
   maskUnits="userSpaceOnUse"
   id="mask15345"><circle
     style="display:inline;opacity:1;fill:#d93d3d;fill-opacity:1;stroke:none;stroke-width:0.92832;stroke-miterlimit:4;stroke-dasharray:none"
     id="circle15347"
     cx="243.66702"
     cy="243.28474"
     r="185.33173"
     inkscape:label="shadow-mask" /></mask><linearGradient
   inkscape:collect="always"
   xlink:href="#linearGradient15354"
   id="linearGradient15356"
   x1="176.356"
   y1="77.628166"
   x2="312.85342"
   y2="409.47876"
   gradientUnits="userSpaceOnUse" /></defs><sodipodi:namedview
   pagecolor="#ffffff"
   bordercolor="#666666"
   borderopacity="1"
   objecttolerance="10"
   gridtolerance="10"
   guidetolerance="10"
   inkscape:pageopacity="0"
   inkscape:pageshadow="2"
   inkscape:window-width="1920"
   inkscape:window-height="1016"
   id="namedview22"
   showgrid="false"
   inkscape:zoom="0.44841879"
   inkscape:cx="479.65355"
   inkscape:cy="594.30735"
   inkscape:window-x="0"
   inkscape:window-y="0"
   inkscape:window-maximized="1"
   inkscape:current-layer="Layer_1" />
<circle
   style="fill:#deddda;fill-opacity:1;stroke:none;stroke-width:12.4566;stroke-miterlimit:4;stroke-dasharray:none"
   id="path15219-3"
   cx="243.17287"
   cy="253.34464"
   r="224.05338" /><circle
   style="fill:#f6f5f4;fill-opacity:1;stroke:none;stroke-width:12.4566;stroke-miterlimit:4;stroke-dasharray:none"
   id="path15219"
   cx="242.35684"
   cy="243.4926"
   r="224.05338" /><path
   style="fill:url(#linearGradient15356);stroke-width:0.928251;fill-opacity:1"
   d="M 377.28204,121.64173 C 344.05065,84.697339 295.96725,61.491066 242.5,61.491066 142.52737,61.491066 61.491066,142.52737 61.491066,242.5 c 0,99.97263 81.036304,181.00893 181.008934,181.00893 99.97263,0 181.00893,-81.0363 181.00893,-181.00893 0,-46.41255 -17.45112,-88.83362 -46.22689,-120.85827 z"
   id="path2" /><path
   d="M 382.45796,122.66921 C 346.75465,82.977203 295.74262,60.212773 242.5,60.212773 c -103.64757,0 -187.970813,84.323247 -187.970813,187.970817 0,103.64757 84.323243,187.97081 187.970813,187.97081 103.64757,0 187.97081,-84.32324 187.97081,-187.97081 0,-46.48217 -17.05011,-91.05585 -48.01285,-125.51438 z M 249.46188,422.07934 v -39.29936 h -13.92376 v 39.29936 c -46.24639,-1.82866 -87.90908,-21.78327 -118.06517,-52.94651 l 27.84196,-27.84196 v -7.57812 l -9.84503,-2.26691 -27.29522,27.29522 C 84.748396,330.32916 70.156291,294.38449 68.604256,255.14547 H 107.90361 V 241.22171 H 68.604256 c 1.552035,-39.23903 16.14414,-75.18369 39.569474,-103.59466 l 27.29522,27.29521 9.84503,-9.84503 v -7.57812 L 117.47202,127.23528 C 147.62904,96.07111 189.29173,76.117423 235.53812,74.287843 V 113.5872 h 13.92376 V 74.291563 c 44.57647,1.79616 86.9734,20.770539 118.12922,52.878737 l -27.90694,20.32881 v 7.57812 l 9.84596,9.84503 27.36669,-27.36669 c 24.14938,29.27611 37.99424,65.60785 39.50358,103.66614 h -39.304 v 13.92376 h 39.29936 c -1.55204,39.23902 -16.14415,75.18276 -39.56949,103.59466 l -27.29521,-27.29522 -9.84596,2.26691 v 7.57812 l 27.84288,27.84289 c -30.15794,31.16324 -71.8197,51.11692 -118.06609,52.94651 z"
   id="path10-5"
   style="opacity:0.512782;fill:#02090a;fill-opacity:1;stroke-width:0.928251"
   inkscape:label="face-shadow"
   mask="url(#mask15345)"
   transform="translate(0,1.8945311)"
   sodipodi:nodetypes="csssscccccccccccccccccccccccccccccccccccccc" /><path
   d="M 382.45796,116.98562 C 346.75465,77.29361 295.74262,54.529184 242.5,54.529184 138.85243,54.529184 54.529184,138.85243 54.529184,242.5 c 0,103.64757 84.323246,187.97081 187.970816,187.97081 103.64757,0 187.97081,-84.32324 187.97081,-187.97081 0,-46.48217 -17.05011,-91.05585 -48.01285,-125.51438 z M 249.46188,416.39575 v -39.29936 h -13.92376 v 39.29936 c -46.24639,-1.82866 -87.90908,-21.78327 -118.06517,-52.94651 l 27.84196,-27.84196 -9.84503,-9.84503 -27.29522,27.29522 C 84.748393,324.64557 70.156288,288.7009 68.604253,249.46188 H 107.90361 V 235.53812 H 68.604253 c 1.552035,-39.23903 16.14414,-75.18369 39.569477,-103.59466 l 27.29522,27.29521 9.84503,-9.84503 -27.84196,-27.84195 c 30.15702,-31.164173 71.81971,-51.117855 118.0661,-52.947437 v 39.299357 h 13.92376 V 68.607966 c 44.57647,1.796165 86.9734,20.770543 118.12922,52.878744 l -27.90694,27.90693 9.84596,9.84503 27.36669,-27.36669 c 24.14938,29.27611 37.99424,65.60785 39.50358,103.66614 h -39.304 v 13.92376 h 39.29936 c -1.55204,39.23902 -16.14415,75.18276 -39.56949,103.59466 l -27.29521,-27.29522 -9.84596,9.84503 27.84288,27.84289 c -30.15794,31.16324 -71.8197,51.11692 -118.06609,52.94651 z"
   id="path10"
   style="opacity:1;stroke-width:0.928251;fill:#11505b;fill-opacity:1" /><path
   d="m 311.32795,157.67912 h 19.35589 v -13.92376 h -48.73318 v 48.73317 h 13.92377 v -28.60219 c 28.7405,18.23363 46.41254,50.09677 46.41254,84.29725 0,55.023 -44.7649,99.78697 -99.78697,99.78697 -55.023,0 -99.78698,-44.76397 -99.78698,-99.78697 0,-55.023 42.99107,-99.96107 98.01374,-99.77041 4.65235,0.0161 7.35466,-3.84478 7.3715,-7.50453 0.072,-15.65064 -2.27131,-6.41173 -7.3715,-6.41923 -62.7005,-0.0921 -111.9375,50.9936 -111.9375,113.69417 0,62.70057 51.01017,113.71074 113.71074,113.71074 62.70057,0 113.71074,-51.01017 113.71074,-113.71074 0,-35.69589 -16.88303,-69.16584 -44.88279,-90.50447 z"
   id="path12-6"
   style="opacity:0.25;stroke-width:0.92832;stroke-miterlimit:4;stroke-dasharray:none"
   sodipodi:nodetypes="cccccccsssssssssc" /><path
   d="m 311.32795,151.99553 h 19.35589 v -13.92376 h -48.73318 v 48.73317 h 13.92377 v -28.60219 c 28.7405,18.23363 46.41254,50.09677 46.41254,84.29725 0,55.023 -44.7649,99.78697 -99.78697,99.78697 -55.023,0 -99.78698,-44.76397 -99.78698,-99.78697 0,-55.023 42.99107,-99.96115 98.01374,-99.77041 8.83092,0.0306 10.77866,-13.90792 0,-13.92376 -62.7005,-0.0922 -111.9375,50.9936 -111.9375,113.69417 0,62.70057 51.01017,113.71074 113.71074,113.71074 62.70057,0 113.71074,-51.01017 113.71074,-113.71074 0,-35.69589 -16.88303,-69.16584 -44.88279,-90.50447 z"
   id="path12"
   style="stroke-width:0.92832;stroke-miterlimit:4;stroke-dasharray:none;fill:#11505b;fill-opacity:1"
   sodipodi:nodetypes="cccccccssssssssc" /><path
   id="polygon14-7"
   style="opacity:0.25"
   transform="matrix(0.92825094,0,0,0.92825094,17.399146,23.082739)"
   d="m 235,245.606 52.196,52.197 10.608,-10.606 0,-6.12291 L 250,239.394 V 157.5 h -15 z"
   sodipodi:nodetypes="cccccccc" /><polygon
   points="287.196,297.803 297.804,287.197 250,239.394 250,157.5 235,157.5 235,245.606 "
   id="polygon14"
   transform="matrix(0.92825094,0,0,0.92825094,17.399146,17.399146)"
   style="fill:#11505b;fill-opacity:1" />















</svg>
