<?xml version="1.0" encoding="UTF-8" standalone="no"?>
<svg
   xmlns:dc="http://purl.org/dc/elements/1.1/"
   xmlns:cc="http://creativecommons.org/ns#"
   xmlns:rdf="http://www.w3.org/1999/02/22-rdf-syntax-ns#"
   xmlns:svg="http://www.w3.org/2000/svg"
   xmlns="http://www.w3.org/2000/svg"
   xmlns:xlink="http://www.w3.org/1999/xlink"
   xmlns:sodipodi="http://sodipodi.sourceforge.net/DTD/sodipodi-0.dtd"
   xmlns:inkscape="http://www.inkscape.org/namespaces/inkscape"
   width="48"
   height="48"
   viewBox="0 0 12.7 12.7"
   version="1.1"
   id="svg8"
   inkscape:version="1.0.2 (e86c870879, 2021-01-15)"
   sodipodi:docname="watch-icon.svg">
  <defs
     id="defs2">
    <linearGradient
       inkscape:collect="always"
       id="linearGradient861">
      <stop
         style="stop-color:#808080;stop-opacity:1;"
         offset="0"
         id="stop857" />
      <stop
         style="stop-color:#808080;stop-opacity:0;"
         offset="1"
         id="stop859" />
    </linearGradient>
    <inkscape:path-effect
       effect="powerclip"
       id="path-effect849"
       is_visible="true"
       lpeversion="1"
       inverse="true"
       flatten="false"
       hide_clip="false"
       message="Use fill-rule evenodd on &lt;b&gt;fill and stroke&lt;/b&gt; dialog if no flatten result after convert clip to paths." />
    <clipPath
       clipPathUnits="userSpaceOnUse"
       id="clipPath845">
      <rect
         style="display:none;opacity:1;fill:#ff6600;stroke-width:0.264583"
         id="rect847"
         width="70"
         height="70"
         x="74.644386"
         y="114.93724"
         rx="3"
         ry="3"
         d="m 77.644386,114.93724 h 64.000004 c 1.662,0 3,1.338 3,3 v 64 c 0,1.662 -1.338,3 -3,3 H 77.644386 c -1.662,0 -3,-1.338 -3,-3 v -64 c 0,-1.662 1.338,-3 3,-3 z" />
      <path
         id="lpe_path-effect849"
         style="opacity:1;fill:#ff6600;stroke-width:0.264583"
         class="powerclip"
         d="M 54.280251,94.821846 H 164.28025 V 204.82185 H 54.280251 Z m 23.364135,20.115394 c -1.662,0 -3,1.338 -3,3 v 64 c 0,1.662 1.338,3 3,3 h 64.000004 c 1.662,0 3,-1.338 3,-3 v -64 c 0,-1.662 -1.338,-3 -3,-3 z" />
    </clipPath>
    <linearGradient
       inkscape:collect="always"
       xlink:href="#linearGradient861"
       id="linearGradient863"
       x1="109.39239"
       y1="100.29983"
       x2="109.39239"
       y2="72.938026"
       gradientUnits="userSpaceOnUse"
       gradientTransform="matrix(0.07262894,0,0,0.07262894,-1.5643869,-4.4150234)" />
    <linearGradient
       inkscape:collect="always"
       xlink:href="#linearGradient861"
       id="linearGradient892"
       gradientUnits="userSpaceOnUse"
       x1="109.39239"
       y1="100.29983"
       x2="109.39239"
       y2="72.938026"
       gradientTransform="matrix(0.07262894,0,0,0.07262894,-14.322959,-17.283779)" />
  </defs>
  <sodipodi:namedview
     id="base"
     pagecolor="#ffffff"
     bordercolor="#666666"
     borderopacity="1.0"
     inkscape:pageopacity="0.0"
     inkscape:pageshadow="2"
     inkscape:zoom="3.0078947"
     inkscape:cx="68.548704"
     inkscape:cy="32.255316"
     inkscape:document-units="mm"
     inkscape:current-layer="layer1"
     inkscape:document-rotation="0"
     showgrid="false"
     units="px"
     inkscape:window-width="1920"
     inkscape:window-height="1043"
     inkscape:window-x="0"
     inkscape:window-y="0"
     inkscape:window-maximized="1" />
  <metadata
     id="metadata5">
    <rdf:RDF>
      <cc:Work
         rdf:about="">
        <dc:format>image/svg+xml</dc:format>
        <dc:type
           rdf:resource="http://purl.org/dc/dcmitype/StillImage" />
        <dc:title></dc:title>
      </cc:Work>
    </rdf:RDF>
  </metadata>
  <g
     inkscape:label="Layer 1"
     inkscape:groupmode="layer"
     id="layer1">
    <path
       style="opacity:1;fill:#808080;stroke-width:0.277829"
       id="rect833"
       width="100"
       height="100"
       x="59.280251"
       y="99.821846"
       ry="20"
       rx="20"
       clip-path="url(#clipPath845)"
       inkscape:path-effect="#path-effect849"
       d="m 79.280251,99.821846 h 59.999999 c 11.08,0 20,8.920004 20,20.000004 v 60 c 0,11.08 -8.92,20 -20,20 H 79.280251 c -11.08,0 -20,-8.92 -20,-20 v -60 c 0,-11.08 8.92,-20.000004 20,-20.000004 z"
       sodipodi:type="rect"
       transform="matrix(0.07262894,0,0,0.07262894,-1.5643869,-4.4534564)" />
    <rect
       style="opacity:1;fill:#808080;stroke-width:0.0231454"
       id="rect853"
       width="0.52974671"
       height="1.6516219"
       x="2.4688313"
       y="5.5629687"
       rx="0.21788682" />
    <rect
       style="opacity:1;fill:url(#linearGradient863);fill-opacity:1;stroke-width:0.0192164"
       id="rect855"
       width="3.6314468"
       height="2.0776963"
       x="4.5781035"
       y="0.77008057"
       rx="0.21788716" />
    <rect
       style="fill:url(#linearGradient892);fill-opacity:1;stroke-width:0.0192164"
       id="rect855-7"
       width="3.6314468"
       height="2.0776963"
       x="-8.1804686"
       y="-12.098674"
       rx="0.21788716"
       transform="scale(-1)" />
  </g>
</svg>
